# xmcd
#
# Track frame offsets:
#	150
#	11427
#	25615
#	34598
#	51508
#	62742
#	75849
#	84771
#	97545
#	117341
#	127479
#	140829
#
# Disc length: 2020 seconds
#
# Revision: 0
# Processed by: cddbd v1.5.2PL0 Copyright (c) Steve Scherf et al.
# Submitted via: EasyCDDAExtractor 10.0.6.1
#
DISCID=8e07e20c
DTITLE=Damascus Road - Treaveling Down Heaven's Road
DYEAR=1900
DGENRE=Bluegrass
TTITLE0=Why He Went To Calvary
TTITLE1=Jesus precious Love
TTITLE2=Living At The Foot Of The Cross
TTITLE3=The Old Rugged Cross
TTITLE4=Someday Soon
TTITLE5=Traveling Down Heaven;\\'s Road
TTITLE6=At The Cross
TTITLE7=Just Over In Gloryland
TTITLE8=As For Me
TTITLE9=It Won't Be Long
TTITLE10=My Redeemer Is Faithful And True
TTITLE11=Tell It To Jesus
EXTD=
EXTT0=
EXTT1=
EXTT2=
EXTT3=
EXTT4=
EXTT5=
EXTT6=
EXTT7=
EXTT8=
EXTT9=
EXTT10=
EXTT11=
PLAYORDER=
